<?xml version="1.0" encoding="iso-8859-1"?>
<!-- Generator: Adobe Illustrator 19.0.0, SVG Export Plug-In . SVG Version: 6.00 Build 0)  -->
<svg version="1.1" id="Capa_1" xmlns="http://www.w3.org/2000/svg" xmlns:xlink="http://www.w3.org/1999/xlink" x="0px" y="0px"
	 viewBox="0 0 512 512" style="enable-background:new 0 0 512 512;" xml:space="preserve">
<rect x="77.277" y="360.592" transform="matrix(-0.7071 0.7071 -0.7071 -0.7071 455.6592 640.2101)" style="fill:#FBB03B;" width="35.922" height="107.766"/>
<rect x="36.59" y="428.261" transform="matrix(-0.7071 0.7071 -0.7071 -0.7071 423.9807 716.8248)" style="fill:#8C6239;" width="53.883" height="35.922"/>
<polygon style="fill:#29ABE2;" points="31.746,452.576 0,458.925 6.349,503.379 50.803,509.728 57.152,477.982 "/>
<polygon style="fill:#CCCCCC;" points="354.14,104.785 429.711,29.214 480.514,29.214 480.514,80.017 399.689,160.842 
	171.044,389.478 133.352,427.179 82.549,376.375 124.569,334.355 "/>
<polyline style="fill:#B3B3B3;" points="480.514,29.214 429.711,29.214 82.549,376.375 107.955,401.773 144.327,365.401 
	392.846,116.882 480.514,29.214 "/>
<rect x="429.711" y="29.214" style="fill:#999999;" width="50.803" height="50.803"/>
<rect x="362.898" y="396.458" transform="matrix(-0.7071 0.7071 -0.7071 -0.7071 1004.5272 412.7484)" style="fill:#FBB03B;" width="107.766" height="35.922"/>
<rect x="430.534" y="419.286" transform="matrix(-0.7071 0.7071 -0.7071 -0.7071 1081.1598 444.6234)" style="fill:#8C6239;" width="35.922" height="53.883"/>
<polygon style="fill:#29ABE2;" points="480.254,452.576 512,458.925 505.651,503.379 461.197,509.728 454.848,477.982 "/>
<polygon style="fill:#CCCCCC;" points="157.86,104.785 82.289,29.214 31.486,29.214 31.486,80.017 112.311,160.842 340.956,389.478 
	378.648,427.179 429.451,376.375 387.431,334.355 "/>
<polyline style="fill:#B3B3B3;" points="31.486,29.214 82.289,29.214 429.451,376.375 404.045,401.773 367.673,365.401 
	119.154,116.882 31.486,29.214 "/>
<rect x="31.486" y="29.214" style="fill:#999999;" width="50.803" height="50.803"/>
<polygon style="fill:#FBB03B;" points="330.09,101.058 363.767,2.272 327.845,2.272 300.903,38.194 273.961,2.272 238.039,2.272 
	211.097,38.194 184.155,2.272 148.233,2.272 181.91,101.058 "/>
<path style="fill:#0071BC;" d="M325.222,398.728L256,433.339l-69.222-34.611c-45.639-22.82-74.467-69.465-74.467-120.492V119.019
	L256,74.117l143.689,44.903v159.216C399.689,329.263,370.861,375.909,325.222,398.728z"/>
<polygon style="fill:#29ABE2;" points="256,110.039 148.233,145.961 148.233,244.747 256,244.747 "/>
<polygon style="fill:#E6E6E6;" points="363.767,244.747 363.767,145.961 256,110.039 256,244.747 "/>
<path style="fill:#29ABE2;" d="M256,244.747v143.689l58.122-29.061c30.426-15.213,49.645-46.304,49.645-80.322v-34.306L256,244.747
	L256,244.747z"/>
<path style="fill:#E6E6E6;" d="M148.233,244.747v34.306c0,34.018,19.218,65.109,49.645,80.322L256,388.436V244.747L148.233,244.747
	L148.233,244.747z"/>
<g>
	<rect x="67.408" y="181.883" style="fill:#B3B3B3;" width="17.961" height="17.961"/>
	<rect x="67.408" y="217.779" style="fill:#B3B3B3;" width="17.961" height="98.786"/>
	<rect x="426.667" y="298.604" style="fill:#B3B3B3;" width="17.961" height="17.961"/>
	<rect x="426.667" y="181.883" style="fill:#B3B3B3;" width="17.961" height="98.786"/>
</g>
<rect x="247.019" y="29.214" style="fill:#F15A24;" width="17.961" height="17.961"/>
<g>
</g>
<g>
</g>
<g>
</g>
<g>
</g>
<g>
</g>
<g>
</g>
<g>
</g>
<g>
</g>
<g>
</g>
<g>
</g>
<g>
</g>
<g>
</g>
<g>
</g>
<g>
</g>
<g>
</g>
</svg>
