<svg id="Layer_1_1_" enable-background="new 0 0 64 64" height="512" viewBox="0 0 64 64" width="512" xmlns="http://www.w3.org/2000/svg"><path d="m57.937 15.865-1.937 8.135-5.523 4.34-22.477 17.66 4 4-7 1-2.857-2.857-2.92 2.634c3.73 3.948 8.011 7.407 12.777 10.223 14.03-8.29 23.978-22.044 27.461-37.964l1.539-7.036c-1.026 0-2.047-.047-3.063-.135z" fill="#63c1ff"/><path d="m18 36 21.451-27.302-7.451-5.698-7.468 5.711c-6.182 4.727-13.749 7.289-21.532 7.289l1.539 7.036c1.679 7.674 4.873 14.836 9.29 21.135l2.171-2.171-3-3 1-7z" fill="#63c1ff"/><path d="m49 15-4 4-22 22 5 5 22.477-17.66 5.523-4.34 5-21z" fill="#dfdfdf"/><path d="m40 8-.549.698-21.451 27.302 5 5 22-22 4-4 12-12z" fill="#f5f5f5"/><path d="m14 32-1 7 12 12 7-1z" fill="#8c421c"/><path d="m13.829 44.171-9.415 9.415c-.781.781-.781 2.047 0 2.828l3.172 3.172c.781.781 2.047.781 2.828 0l7.586-7.586-6-6 6 6 4-4-6-6z" fill="#bebebe"/><path d="m32 12-5.571 4.046c-4.381 3.35-9.742 5.165-15.256 5.165l1.091 4.986c.435 1.988 1.014 3.928 1.726 5.808l4.01 3.995 16.972-21.6z" fill="#4398d1"/><path d="m50.477 28.34c-3.288 11.225-8.342 18.671-18.477 24.66-1.285-.759-2.517-1.578-3.7-2.451l4.2-.371-4.2-4.178z" fill="#4398d1"/><path d="m49 15-2.643 2.643v13.94l2.322-1.806z" fill="#f5f5f5"/><path d="m43.857 20.172.098 13.361-1.705 1.373v-13.167z" fill="#f5f5f5"/><path d="m31.443 52.651 1.457-.208c.741-.458 1.456-.925 2.142-1.402l-3.042-3.041 15.87-12.469c.988-2.217 1.848-4.599 2.607-7.191l-22.177 17.66 4.2 4.179-4.2.371c1.008.744 2.061 1.439 3.143 2.101z" fill="#3c89bd"/><path d="m57.937 15.865-1.937 8.135-5.523 4.34c-.759 2.592-1.619 4.974-2.607 7.191l6.607-5.191 3.86-3.033c.421-1.406.808-2.826 1.124-4.27l1.539-7.037c-1.026 0-2.047-.047-3.063-.135z" fill="#5cb3ed"/><path d="m25 51-2.857-2.857-2.92 2.634c.97 1.027 1.98 2.019 3.023 2.977z" fill="#5cb3ed"/><path d="m2.221 15.373c-.19.236-.263.545-.198.841l1.539 7.037c1.633 7.463 4.662 14.45 8.981 20.792l-8.836 8.836c-1.17 1.169-1.17 3.073 0 4.242l3.172 3.172c.585.585 1.353.877 2.121.877s1.536-.292 2.121-.877l8.094-8.094c3.682 3.766 7.803 7.019 12.276 9.662.157.093.333.139.509.139s.352-.046.509-.139c14.22-8.403 24.399-22.476 27.929-38.61l1.539-7.037c.064-.296-.008-.605-.198-.841s-.476-.373-.779-.373c-.594 0-1.203-.022-1.816-.056l2.789-11.713c.081-.337-.02-.693-.266-.938s-.603-.347-.938-.266l-21 5c-.187.044-.348.15-.48.287l-6.681-5.109c-.358-.274-.856-.274-1.215 0l-7.468 5.71c-5.974 4.569-13.405 7.085-20.925 7.085-.303 0-.589.137-.779.373zm12.632 16.066c-.661-1.777-1.208-3.609-1.612-5.457l-.832-3.801c5.275-.254 10.426-2.127 14.608-5.326l4.951-3.596 1.608 1.299-15.666 19.938zm-.146 2.682 15.172 15.172-4.525.646-2.646-2.646-6-6-2.646-2.646zm44.502-27.916-4.101 17.224-27.028 21.237-3.666-3.666zm-26.502 43.088-3.203-3.203 19.015-14.94c-3.326 9.522-8.276 15.688-16.518 20.684-.354-.216-.702-.446-1.051-.674l1.192-.17c.375-.053.688-.314.807-.673s.026-.756-.242-1.024zm-14.707 1.293-4.586-4.586 2.586-2.586 4.586 4.586zm-8.293 8.293c-.378.377-1.036.377-1.414 0l-3.172-3.172c-.188-.189-.292-.44-.292-.707s.104-.518.292-.707l6.879-6.879 4.586 4.586zm50.056-41.901-1.279 5.845c-3.369 15.401-13.007 28.858-26.484 37.012-4.133-2.501-7.948-5.545-11.371-9.05l1.371-1.371 2.293 2.293c.189.189.444.293.707.293.047 0 .094-.003.142-.01l2.884-.412c1.123.813 2.283 1.585 3.465 2.283.157.093.333.139.509.139s.352-.046.509-.139c9.82-5.803 15.291-13.045 18.83-24.927l5.279-4.148c.178-.139.303-.335.355-.555l1.742-7.318c.35.023.702.053 1.048.065zm-1.968-12.187-9.209 9.209h-10.586v2h8.586l-2 2h-8.586v2h6.586l-19.586 19.586-3.666-3.666 21.237-27.028zm-32.655 4.714 6.86-5.246 6.039 4.618-3.228 4.108-2.183-1.763c-.354-.286-.852-.297-1.216-.031l-5.591 4.061c-4.182 3.198-9.384 4.959-14.649 4.959-.303 0-.589.137-.779.373s-.263.545-.198.841l1.091 4.985c.424 1.936.992 3.857 1.685 5.718l-.961 6.73c-.045.312.06.626.283.849l2.293 2.293-.601.601c-4.061-6.047-6.919-12.689-8.469-19.778l-1.278-5.844c7.531-.261 14.909-2.892 20.902-7.474z"/><path d="m58 39h2v2h-2z"/><path d="m56 41h2v2h-2z"/><path d="m60 41h2v2h-2z"/><path d="m58 43h2v2h-2z"/><path d="m54 53h2v2h-2z"/><path d="m52 55h2v2h-2z"/><path d="m56 55h2v2h-2z"/><path d="m54 57h2v2h-2z"/><path d="m8 2h2v2h-2z"/><path d="m6 4h2v2h-2z"/><path d="m10 4h2v2h-2z"/><path d="m8 6h2v2h-2z"/><path d="m44 55h2v2h-2z"/><path d="m16 3h2v2h-2z"/><path d="m2 11h2v2h-2z"/><path d="m60 60h2v2h-2z"/></svg>